<svg xmlns="http://www.w3.org/2000/svg" viewBox="0 0 620 330" width="620" height="330" role="img" aria-label="Contribution metrics">
  <title>Contribution metrics</title>
  <defs>
    <linearGradient id="cbg" x1="0" y1="0" x2="1" y2="1">
      <stop offset="0%" stop-color="#0a101c"/><stop offset="100%" stop-color="#060a12"/>
    </linearGradient>
    <linearGradient id="accent" x1="0" y1="0" x2="1" y2="0">
      <stop offset="0%" stop-color="#38bdf8"/><stop offset="50%" stop-color="#a78bfa"/><stop offset="100%" stop-color="#f472b6"/>
    </linearGradient>
    <radialGradient id="halo" cx="50%" cy="50%" r="50%">
      <stop offset="0%" stop-color="#2563eb" stop-opacity="0.35"/><stop offset="100%" stop-color="#2563eb" stop-opacity="0"/>
    </radialGradient>
    <clipPath id="cclip"><rect width="620" height="330" rx="16"/></clipPath>
    <linearGradient id="sparkFill" x1="0" y1="0" x2="0" y2="1">
      <stop offset="0%" stop-color="#38bdf8" stop-opacity="0.34"/><stop offset="100%" stop-color="#38bdf8" stop-opacity="0"/>
    </linearGradient>
  </defs>
  <style>
    .sans{font-family:'Segoe UI',Ubuntu,'Helvetica Neue',Arial,sans-serif}
    .mono{font-family:'JetBrains Mono','Fira Code',ui-monospace,SFMono-Regular,Menlo,Consolas,monospace}
    @keyframes rise{0%{opacity:0;transform:translateY(10px)}100%{opacity:1;transform:translateY(0)}}
    @keyframes glow{0%,100%{opacity:.30}50%{opacity:.70}}
    .halo{animation:glow 6s ease-in-out infinite}

    @keyframes draw{to{stroke-dashoffset:0}}
    .spark{stroke-dasharray:2600;stroke-dashoffset:2600;animation:draw 2.6s ease-out .3s forwards}
</style>
  <g clip-path="url(#cclip)">
    <rect width="620" height="330" fill="url(#cbg)"/>
    <ellipse class="halo" cx="580" cy="-10" rx="240" ry="150" fill="url(#halo)"/>
    <text class="mono" x="26" y="34" font-size="11.5" letter-spacing="2.6" fill="#5c78a8">GITHUB ACTIVITY</text>
    <text class="sans" x="26" y="60" font-size="20" font-weight="700" fill="#e6edf7">Contribution metrics</text>
    <rect x="26" y="72" width="54" height="3" rx="1.5" fill="url(#accent)"/>
    <text class="mono" x="26" y="92" font-size="9.5" letter-spacing="1.4" fill="#4d648c">ALL REPOSITORIES  ·  INCLUDING PRIVATE ORGS</text>
    <g style="opacity:0;animation:rise .6s ease-out 0.00s forwards"><rect x="26" y="102" width="190" height="58" rx="10" fill="#0e1626" stroke="#1c2942"/><rect x="26" y="102" width="3" height="58" rx="1.5" fill="#34d399"/><text class="sans" x="42" y="128" font-size="23" font-weight="800" fill="#f0f6ff">322</text><text class="mono" x="42" y="146" font-size="10.5" letter-spacing="1.1" fill="#6b83aa">MERGED PRS</text></g>
    <g style="opacity:0;animation:rise .6s ease-out 0.08s forwards"><rect x="224" y="102" width="190" height="58" rx="10" fill="#0e1626" stroke="#1c2942"/><rect x="224" y="102" width="3" height="58" rx="1.5" fill="#7dd3fc"/><text class="sans" x="240" y="128" font-size="23" font-weight="800" fill="#f0f6ff">24</text><text class="mono" x="240" y="146" font-size="10.5" letter-spacing="1.1" fill="#6b83aa">REPOS SHIPPED TO</text></g>
    <g style="opacity:0;animation:rise .6s ease-out 0.16s forwards"><rect x="422" y="102" width="190" height="58" rx="10" fill="#0e1626" stroke="#1c2942"/><rect x="422" y="102" width="3" height="58" rx="1.5" fill="#fbbf24"/><text class="sans" x="438" y="128" font-size="23" font-weight="800" fill="#f0f6ff">11</text><text class="mono" x="438" y="146" font-size="10.5" letter-spacing="1.1" fill="#6b83aa">ORGS SHIPPED TO</text></g>
    <text class="mono" x="26" y="178" font-size="9.5" letter-spacing="1.4" fill="#4d648c">PUBLIC ACTIVITY</text>
    <g style="opacity:0;animation:rise .6s ease-out 0.24s forwards"><rect x="26" y="188" width="190" height="58" rx="10" fill="#0e1626" stroke="#1c2942"/><rect x="26" y="188" width="3" height="58" rx="1.5" fill="#a78bfa"/><text class="sans" x="42" y="214" font-size="23" font-weight="800" fill="#f0f6ff">374</text><text class="mono" x="42" y="232" font-size="10.5" letter-spacing="1.1" fill="#6b83aa">CONTRIBUTIONS</text></g>
    <g style="opacity:0;animation:rise .6s ease-out 0.32s forwards"><rect x="224" y="188" width="190" height="58" rx="10" fill="#0e1626" stroke="#1c2942"/><rect x="224" y="188" width="3" height="58" rx="1.5" fill="#f472b6"/><text class="sans" x="240" y="214" font-size="23" font-weight="800" fill="#f0f6ff">314</text><text class="mono" x="240" y="232" font-size="10.5" letter-spacing="1.1" fill="#6b83aa">COMMITS</text></g>
    <g style="opacity:0;animation:rise .6s ease-out 0.40s forwards"><rect x="422" y="188" width="190" height="58" rx="10" fill="#0e1626" stroke="#1c2942"/><rect x="422" y="188" width="3" height="58" rx="1.5" fill="#fb923c"/><text class="sans" x="438" y="214" font-size="23" font-weight="800" fill="#f0f6ff">29</text><text class="mono" x="438" y="232" font-size="10.5" letter-spacing="1.1" fill="#6b83aa">REPOS OWNED</text></g>
    <text class="mono" x="26" y="262" font-size="10.5" letter-spacing="1.1" fill="#6b83aa">LAST 12 MONTHS<tspan fill="#38bdf8" dx="8">152 PUBLIC CONTRIBUTIONS</tspan></text>
    <path d="M26.0,307.3 C27.8,307.5 33.3,307.9 36.9,308.0 C40.6,308.1 44.2,308.0 47.8,308.0 C51.5,308.0 55.1,308.0 58.8,308.0 C62.4,308.0 66.1,308.0 69.7,308.0 C73.3,308.0 77.0,308.0 80.6,308.0 C84.3,308.0 87.9,308.0 91.5,308.0 C95.2,308.0 98.8,309.4 102.5,308.0 C106.1,306.6 109.7,299.5 113.4,299.5 C117.0,299.5 120.7,306.6 124.3,308.0 C127.9,309.4 131.6,308.0 135.2,308.0 C138.9,308.0 142.5,308.0 146.2,308.0 C149.8,308.0 153.4,308.0 157.1,308.0 C160.7,308.0 164.4,308.0 168.0,308.0 C171.6,308.0 175.3,308.1 178.9,308.0 C182.6,307.9 186.2,307.3 189.8,307.3 C193.5,307.3 197.1,307.9 200.8,308.0 C204.4,308.1 208.1,308.0 211.7,308.0 C215.3,308.0 219.0,308.0 222.6,308.0 C226.3,308.0 229.9,308.1 233.5,308.0 C237.2,307.9 240.8,307.3 244.5,307.3 C248.1,307.3 251.7,307.9 255.4,308.0 C259.0,308.1 262.7,308.0 266.3,308.0 C269.9,308.0 273.6,308.0 277.2,308.0 C280.9,308.0 284.5,308.0 288.2,308.0 C291.8,308.0 295.4,308.3 299.1,308.0 C302.7,307.7 306.4,306.3 310.0,306.0 C313.6,305.8 317.3,307.6 320.9,306.7 C324.6,305.8 328.2,300.7 331.8,300.8 C335.5,300.9 339.1,306.7 342.8,307.3 C346.4,308.0 350.1,304.6 353.7,304.7 C357.3,304.8 361.0,307.5 364.6,308.0 C368.3,308.5 371.9,309.0 375.5,308.0 C379.2,307.0 382.8,302.1 386.5,302.1 C390.1,302.1 393.7,307.2 397.4,308.0 C401.0,308.8 404.7,306.7 408.3,306.7 C411.9,306.7 415.6,307.8 419.2,308.0 C422.9,308.2 426.5,308.0 430.2,308.0 C433.8,308.0 437.4,310.1 441.1,308.0 C444.7,305.9 448.4,301.9 452.0,295.6 C455.6,289.2 459.3,267.9 462.9,270.0 C466.6,272.1 470.2,302.3 473.8,308.0 C477.5,313.7 481.1,304.1 484.8,304.1 C488.4,304.1 492.1,307.3 495.7,308.0 C499.3,308.7 503.0,308.0 506.6,308.0 C510.3,308.0 513.9,308.4 517.5,308.0 C521.2,307.6 524.8,306.3 528.5,305.4 C532.1,304.5 535.7,302.3 539.4,302.8 C543.0,303.2 546.7,307.1 550.3,308.0 C553.9,308.9 557.6,308.1 561.2,308.0 C564.9,307.9 568.5,308.1 572.2,307.3 C575.8,306.6 579.4,303.3 583.1,303.4 C586.7,303.5 592.2,307.2 594.0,308.0 L594.0,308.0 L26.0,308.0 Z" fill="url(#sparkFill)" style="opacity:0;animation:rise .9s ease-out .55s forwards"/>
    <path class="spark" d="M26.0,307.3 C27.8,307.5 33.3,307.9 36.9,308.0 C40.6,308.1 44.2,308.0 47.8,308.0 C51.5,308.0 55.1,308.0 58.8,308.0 C62.4,308.0 66.1,308.0 69.7,308.0 C73.3,308.0 77.0,308.0 80.6,308.0 C84.3,308.0 87.9,308.0 91.5,308.0 C95.2,308.0 98.8,309.4 102.5,308.0 C106.1,306.6 109.7,299.5 113.4,299.5 C117.0,299.5 120.7,306.6 124.3,308.0 C127.9,309.4 131.6,308.0 135.2,308.0 C138.9,308.0 142.5,308.0 146.2,308.0 C149.8,308.0 153.4,308.0 157.1,308.0 C160.7,308.0 164.4,308.0 168.0,308.0 C171.6,308.0 175.3,308.1 178.9,308.0 C182.6,307.9 186.2,307.3 189.8,307.3 C193.5,307.3 197.1,307.9 200.8,308.0 C204.4,308.1 208.1,308.0 211.7,308.0 C215.3,308.0 219.0,308.0 222.6,308.0 C226.3,308.0 229.9,308.1 233.5,308.0 C237.2,307.9 240.8,307.3 244.5,307.3 C248.1,307.3 251.7,307.9 255.4,308.0 C259.0,308.1 262.7,308.0 266.3,308.0 C269.9,308.0 273.6,308.0 277.2,308.0 C280.9,308.0 284.5,308.0 288.2,308.0 C291.8,308.0 295.4,308.3 299.1,308.0 C302.7,307.7 306.4,306.3 310.0,306.0 C313.6,305.8 317.3,307.6 320.9,306.7 C324.6,305.8 328.2,300.7 331.8,300.8 C335.5,300.9 339.1,306.7 342.8,307.3 C346.4,308.0 350.1,304.6 353.7,304.7 C357.3,304.8 361.0,307.5 364.6,308.0 C368.3,308.5 371.9,309.0 375.5,308.0 C379.2,307.0 382.8,302.1 386.5,302.1 C390.1,302.1 393.7,307.2 397.4,308.0 C401.0,308.8 404.7,306.7 408.3,306.7 C411.9,306.7 415.6,307.8 419.2,308.0 C422.9,308.2 426.5,308.0 430.2,308.0 C433.8,308.0 437.4,310.1 441.1,308.0 C444.7,305.9 448.4,301.9 452.0,295.6 C455.6,289.2 459.3,267.9 462.9,270.0 C466.6,272.1 470.2,302.3 473.8,308.0 C477.5,313.7 481.1,304.1 484.8,304.1 C488.4,304.1 492.1,307.3 495.7,308.0 C499.3,308.7 503.0,308.0 506.6,308.0 C510.3,308.0 513.9,308.4 517.5,308.0 C521.2,307.6 524.8,306.3 528.5,305.4 C532.1,304.5 535.7,302.3 539.4,302.8 C543.0,303.2 546.7,307.1 550.3,308.0 C553.9,308.9 557.6,308.1 561.2,308.0 C564.9,307.9 568.5,308.1 572.2,307.3 C575.8,306.6 579.4,303.3 583.1,303.4 C586.7,303.5 592.2,307.2 594.0,308.0" fill="none" stroke="url(#accent)" stroke-width="2.2" stroke-linecap="round" stroke-linejoin="round"/>
    <rect x="0.5" y="0.5" width="619" height="329" rx="16" fill="none" stroke="#1e2b45"/>
  </g>
</svg>
